<?xml version="1.0" standalone="no"?>
<!DOCTYPE svg PUBLIC "-//W3C//DTD SVG 20010904//EN"
 "http://www.w3.org/TR/2001/REC-SVG-20010904/DTD/svg10.dtd">
<svg version="1.0" xmlns="http://www.w3.org/2000/svg"
 width="626.000000pt" height="626.000000pt" viewBox="0 0 626.000000 626.000000"
 preserveAspectRatio="xMidYMid meet">

<g transform="translate(0.000000,626.000000) scale(0.100000,-0.100000)"
fill="#000000" stroke="none">
<path d="M2313 6003 c-60 -66 -105 -135 -138 -218 -26 -62 -29 -82 -29 -185
-1 -123 4 -146 59 -265 25 -53 34 -88 37 -142 4 -72 -4 -95 -17 -50 -12 40
-69 116 -95 126 -14 5 -53 19 -88 31 -34 13 -88 38 -119 56 -30 19 -57 34 -58
34 -2 0 11 -37 28 -82 31 -86 79 -170 115 -201 11 -11 18 -26 15 -34 -4 -9 -1
-13 8 -12 8 2 39 -9 70 -24 30 -15 78 -30 105 -33 l50 -6 21 -107 c12 -58 24
-114 28 -123 12 -30 -10 -20 -29 13 -10 17 -39 44 -64 60 -41 26 -55 29 -126
29 -77 0 -155 9 -220 26 l-30 7 22 -29 c13 -16 50 -57 84 -91 l62 -63 91 0
c90 1 222 14 232 23 3 3 -5 44 -16 91 -28 113 -28 116 12 116 51 0 137 46 188
101 26 27 64 85 85 129 21 44 44 80 51 80 7 0 13 5 13 10 0 6 -4 10 -10 10 -5
0 -7 13 -3 31 l6 32 -44 -27 c-54 -34 -157 -83 -193 -92 -14 -3 -44 -26 -65
-50 -21 -24 -45 -44 -52 -44 -10 0 -10 -3 -3 -8 9 -5 8 -22 0 -66 -7 -33 -16
-55 -20 -48 -8 14 -25 232 -19 250 3 6 11 12 18 12 28 0 105 83 135 146 66
141 63 324 -12 567 -11 37 -25 67 -31 67 -6 0 -30 -21 -54 -47z"/>
<path d="M3468 5723 c7 -3 16 -2 19 1 4 3 -2 6 -13 5 -11 0 -14 -3 -6 -6z"/>
<path d="M3675 5660 c3 -5 8 -10 11 -10 2 0 4 5 4 10 0 6 -5 10 -11 10 -5 0
-7 -4 -4 -10z"/>
<path d="M3105 5640 c3 -5 8 -10 11 -10 2 0 4 5 4 10 0 6 -5 10 -11 10 -5 0
-7 -4 -4 -10z"/>
<path d="M3720 5640 c0 -5 5 -10 11 -10 5 0 7 5 4 10 -3 6 -8 10 -11 10 -2 0
-4 -4 -4 -10z"/>
<path d="M3765 5610 c3 -5 11 -10 16 -10 6 0 7 5 4 10 -3 6 -11 10 -16 10 -6
0 -7 -4 -4 -10z"/>
<path d="M3810 5580 c0 -5 5 -10 11 -10 5 0 7 5 4 10 -3 6 -8 10 -11 10 -2 0
-4 -4 -4 -10z"/>
<path d="M2970 5549 c0 -5 5 -7 10 -4 6 3 10 8 10 11 0 2 -4 4 -10 4 -5 0 -10
-5 -10 -11z"/>
<path d="M3855 5540 c3 -5 8 -10 11 -10 2 0 4 5 4 10 0 6 -5 10 -11 10 -5 0
-7 -4 -4 -10z"/>
<path d="M3890 5510 c0 -5 5 -10 11 -10 5 0 7 5 4 10 -3 6 -8 10 -11 10 -2 0
-4 -4 -4 -10z"/>
<path d="M2885 5480 c-3 -5 -1 -10 4 -10 6 0 11 5 11 10 0 6 -2 10 -4 10 -3 0
-8 -4 -11 -10z"/>
<path d="M3930 5470 c0 -5 5 -10 11 -10 5 0 7 5 4 10 -3 6 -8 10 -11 10 -2 0
-4 -4 -4 -10z"/>
<path d="M2850 5439 c0 -5 5 -7 10 -4 6 3 10 8 10 11 0 2 -4 4 -10 4 -5 0 -10
-5 -10 -11z"/>
<path d="M2810 5399 c0 -5 5 -7 10 -4 6 3 10 8 10 11 0 2 -4 4 -10 4 -5 0 -10
-5 -10 -11z"/>
<path d="M4000 5390 c0 -5 5 -10 11 -10 5 0 7 5 4 10 -3 6 -8 10 -11 10 -2 0
-4 -4 -4 -10z"/>
<path d="M2775 5370 c-3 -5 -1 -10 4 -10 6 0 11 5 11 10 0 6 -2 10 -4 10 -3 0
-8 -4 -11 -10z"/>
<path d="M4035 5340 c3 -5 8 -10 11 -10 2 0 4 5 4 10 0 6 -5 10 -11 10 -5 0
-7 -4 -4 -10z"/>
<path d="M2730 5329 c0 -5 5 -7 10 -4 6 3 10 8 10 11 0 2 -4 4 -10 4 -5 0 -10
-5 -10 -11z"/>
<path d="M2685 5300 c-3 -5 -1 -10 4 -10 6 0 11 5 11 10 0 6 -2 10 -4 10 -3 0
-8 -4 -11 -10z"/>
<path d="M4065 5300 c3 -5 8 -10 11 -10 2 0 4 5 4 10 0 6 -5 10 -11 10 -5 0
-7 -4 -4 -10z"/>
<path d="M4101 5254 c0 -11 3 -14 6 -6 3 7 2 16 -1 19 -3 4 -6 -2 -5 -13z"/>
<path d="M2670 5054 c-36 -30 -100 -76 -142 -101 -83 -49 -121 -94 -137 -163
-5 -22 -6 -40 -2 -41 18 -3 73 4 131 17 137 31 135 30 158 81 12 27 28 73 36
103 14 58 30 160 24 159 -1 0 -32 -25 -68 -55z"/>
<path d="M2992 5070 c-74 -5 -135 -10 -137 -12 -2 -2 -5 -53 -6 -113 -1 -61
-4 -130 -7 -155 -4 -49 -3 -48 -122 -115 -30 -17 -77 -44 -105 -59 -132 -75
-176 -97 -186 -94 -6 2 -17 18 -25 36 -13 32 -13 32 23 47 19 8 39 15 43 15 4
0 14 8 21 17 12 15 12 16 -6 9 -11 -4 -44 -10 -73 -13 -29 -3 -54 -9 -57 -13
-2 -3 7 -30 21 -59 13 -29 24 -56 24 -59 0 -4 -25 -20 -55 -36 -30 -16 -55
-32 -55 -37 0 -14 23 -114 110 -474 22 -90 40 -170 40 -177 0 -7 -17 -24 -37
-38 -55 -38 -108 -93 -123 -130 -12 -29 -12 -34 5 -46 29 -22 53 -17 69 14 22
42 96 117 105 106 4 -5 13 -35 20 -66 8 -37 18 -58 26 -58 61 0 371 145 505
236 39 27 78 54 87 59 17 10 40 28 79 62 12 10 43 36 70 58 64 51 274 258 274
268 0 4 10 18 21 30 39 40 106 151 122 202 23 70 25 134 5 149 -9 6 -62 36
-117 66 l-102 55 2 85 c2 47 2 117 1 157 l-2 71 -72 6 c-154 12 -258 13 -386
6z m168 -401 c0 -5 -4 -9 -10 -9 -5 0 -10 7 -10 16 0 8 5 12 10 9 6 -3 10 -10
10 -16z m0 -45 c0 -8 -4 -14 -10 -14 -5 0 -10 9 -10 21 0 11 5 17 10 14 6 -3
10 -13 10 -21z m0 -44 c0 -11 -4 -20 -10 -20 -5 0 -10 9 -10 20 0 11 5 20 10
20 6 0 10 -9 10 -20z m0 -55 c0 -8 -4 -15 -10 -15 -5 0 -10 7 -10 15 0 8 5 15
10 15 6 0 10 -7 10 -15z m-4 -62 c-11 -11 -19 6 -11 24 8 17 8 17 12 0 3 -10
2 -21 -1 -24z m0 -50 c-11 -11 -19 6 -11 24 8 17 8 17 12 0 3 -10 2 -21 -1
-24z m4 -38 c0 -8 -4 -15 -10 -15 -5 0 -10 7 -10 15 0 8 5 15 10 15 6 0 10 -7
10 -15z m0 -51 c0 -8 -4 -14 -10 -14 -5 0 -10 9 -10 21 0 11 5 17 10 14 6 -3
10 -13 10 -21z m-4 -61 c-11 -11 -19 6 -11 24 8 17 8 17 12 0 3 -10 2 -21 -1
-24z m4 -39 c0 -8 -4 -14 -10 -14 -5 0 -10 9 -10 21 0 11 5 17 10 14 6 -3 10
-13 10 -21z m0 -50 c0 -8 -4 -14 -10 -14 -5 0 -10 9 -10 21 0 11 5 17 10 14 6
-3 10 -13 10 -21z m0 -49 c0 -8 -4 -15 -10 -15 -5 0 -10 7 -10 15 0 8 5 15 10
15 6 0 10 -7 10 -15z m-4 -62 c-11 -11 -19 6 -11 24 8 17 8 17 12 0 3 -10 2
-21 -1 -24z m0 -50 c-11 -11 -19 6 -11 24 8 17 8 17 12 0 3 -10 2 -21 -1 -24z
m4 -38 c0 -8 -4 -15 -10 -15 -5 0 -10 7 -10 15 0 8 5 15 10 15 6 0 10 -7 10
-15z m0 -50 c0 -8 -4 -15 -10 -15 -5 0 -10 7 -10 15 0 8 5 15 10 15 6 0 10 -7
10 -15z"/>
<path d="M1970 5059 c0 -5 5 -7 10 -4 6 3 10 8 10 11 0 2 -4 4 -10 4 -5 0 -10
-5 -10 -11z"/>
<path d="M1868 5043 c7 -3 16 -2 19 1 4 3 -2 6 -13 5 -11 0 -14 -3 -6 -6z"/>
<path d="M1818 5033 c7 -3 16 -2 19 1 4 3 -2 6 -13 5 -11 0 -14 -3 -6 -6z"/>
<path d="M1710 5009 c0 -5 5 -7 10 -4 6 3 10 8 10 11 0 2 -4 4 -10 4 -5 0 -10
-5 -10 -11z"/>
<path d="M1658 4993 c7 -3 16 -2 19 1 4 3 -2 6 -13 5 -11 0 -14 -3 -6 -6z"/>
<path d="M625 4983 c-33 -8 -65 -44 -75 -84 -21 -76 30 -232 125 -385 25 -40
45 -77 45 -83 0 -6 4 -11 8 -11 5 0 24 -21 42 -47 78 -109 284 -343 302 -343
5 0 8 11 8 25 0 14 5 25 10 25 6 0 10 -13 10 -30 0 -25 4 -30 25 -30 31 0 33
-16 3 -24 -22 -6 -21 -8 17 -41 22 -20 61 -52 87 -73 26 -20 47 -40 48 -43 0
-3 -25 -13 -55 -23 -67 -21 -115 -59 -115 -92 0 -36 61 -88 145 -123 63 -26
201 -59 328 -77 20 -3 37 -8 36 -12 0 -4 -28 -20 -61 -37 -76 -37 -158 -115
-158 -150 0 -31 8 -32 20 -2 l9 22 0 -23 c1 -15 10 -26 27 -32 14 -6 22 -14
19 -20 -10 -16 116 -12 201 6 195 40 376 131 467 235 l45 52 47 -27 c26 -14
52 -26 57 -26 15 0 -12 29 -41 45 -55 30 -57 32 -39 52 28 31 66 164 77 274
12 110 8 211 -11 314 -37 196 -127 221 -187 51 -25 -70 -35 -75 -47 -23 -3 17
-27 74 -52 126 -75 154 -166 228 -214 174 -28 -31 -49 -123 -47 -206 1 -43 0
-79 -2 -81 -2 -3 -33 30 -69 71 -69 81 -292 285 -371 341 -11 7 -32 25 -46 38
-14 13 -29 24 -34 24 -4 0 -26 16 -49 35 -55 46 -191 135 -256 168 -116 59
-223 85 -279 70z"/>
<path d="M1600 4980 c0 -5 4 -10 9 -10 6 0 13 5 16 10 3 6 -1 10 -9 10 -9 0
-16 -4 -16 -10z"/>
<path d="M1550 4960 c0 -5 5 -10 10 -10 6 0 10 5 10 10 0 6 -4 10 -10 10 -5 0
-10 -4 -10 -10z"/>
<path d="M1505 4940 c-3 -5 -1 -10 4 -10 6 0 11 5 11 10 0 6 -2 10 -4 10 -3 0
-8 -4 -11 -10z"/>
<path d="M4530 4937 c0 -2 11 -30 25 -61 14 -31 25 -63 25 -70 0 -8 -18 -32
-40 -55 -22 -22 -40 -45 -40 -50 0 -6 26 -24 58 -41 40 -22 69 -48 97 -87 55
-76 152 -165 216 -196 38 -19 68 -27 108 -27 50 0 57 3 93 40 34 37 38 46 38
93 0 96 -85 203 -210 264 -46 22 -68 26 -130 26 -89 -1 -109 9 -148 82 -15 27
-41 58 -59 68 -18 10 -33 17 -33 14z m359 -266 c102 -53 164 -178 111 -226
-42 -38 -143 10 -228 108 -57 66 -63 94 -27 125 24 20 35 23 68 18 21 -4 56
-15 76 -25z"/>
<path d="M1450 4910 c0 -5 4 -10 9 -10 6 0 13 5 16 10 3 6 -1 10 -9 10 -9 0
-16 -4 -16 -10z"/>
<path d="M1410 4879 c0 -5 5 -7 10 -4 6 3 10 8 10 11 0 2 -4 4 -10 4 -5 0 -10
-5 -10 -11z"/>
<path d="M1370 4850 c0 -5 5 -10 10 -10 6 0 10 5 10 10 0 6 -4 10 -10 10 -5 0
-10 -4 -10 -10z"/>
<path d="M1330 4810 c0 -5 5 -10 10 -10 6 0 10 5 10 10 0 6 -4 10 -10 10 -5 0
-10 -4 -10 -10z"/>
<path d="M1295 4770 c-3 -5 -1 -10 4 -10 6 0 11 5 11 10 0 6 -2 10 -4 10 -3 0
-8 -4 -11 -10z"/>
<path d="M4331 4613 c-7 -49 -15 -94 -19 -100 -4 -7 -23 -19 -42 -27 -75 -31
-112 -99 -112 -202 1 -57 6 -84 26 -126 82 -170 296 -114 296 78 0 29 -9 117
-21 196 -12 79 -19 166 -17 195 4 49 3 51 -23 57 -14 3 -38 8 -51 11 -25 6
-25 5 -37 -82z m3 -223 c62 -23 89 -148 46 -217 -16 -27 -26 -33 -53 -33 -92
0 -129 178 -50 239 30 24 25 24 57 11z"/>
<path d="M3785 4494 c-27 -183 -240 -439 -576 -692 -47 -35 -55 -46 -51 -67 2
-15 0 -25 -7 -25 -6 0 -11 10 -11 21 0 21 -1 21 -34 -5 -19 -14 -38 -26 -41
-26 -3 0 -21 -11 -38 -24 -18 -13 -67 -43 -110 -65 -43 -23 -86 -46 -95 -51
-52 -29 -147 -65 -220 -84 -76 -19 -83 -23 -79 -43 5 -29 -2 -29 -64 3 -28 14
-56 23 -62 21 -6 -2 23 -20 64 -39 l76 -36 13 -64 c7 -34 18 -69 23 -76 8 -9
7 -16 0 -20 -9 -6 -93 -193 -93 -207 0 -3 -10 -26 -22 -52 -13 -26 -48 -108
-78 -182 l-55 -135 -64 -12 c-64 -13 -205 -77 -251 -114 l-25 -20 39 0 c21 0
79 -10 127 -22 67 -16 89 -26 89 -38 0 -26 57 -106 111 -154 l50 -45 -27 -30
-26 -30 -47 39 c-68 57 -119 74 -231 73 -77 0 -110 -5 -175 -27 -82 -28 -114
-46 -81 -46 19 0 146 -59 226 -106 38 -22 54 -25 105 -22 33 3 78 13 100 23
22 11 45 21 50 23 20 9 -91 -100 -138 -135 l-47 -35 -40 16 c-52 21 -165 21
-227 0 -69 -23 -199 -112 -263 -181 -111 -117 -181 -215 -166 -230 13 -14 228
-16 286 -3 166 37 324 169 391 326 14 34 36 61 72 89 86 68 87 68 51 8 -42
-70 -44 -116 -9 -226 14 -43 25 -97 25 -120 0 -69 13 -76 47 -26 115 167 140
322 72 449 l-29 54 51 52 51 52 61 -38 c34 -20 83 -45 108 -54 42 -16 50 -25
90 -99 l43 -82 12 40 c7 22 13 48 13 57 1 24 12 28 57 18 60 -14 270 -41 317
-40 23 0 49 0 57 -1 29 -1 215 22 290 37 112 21 105 25 107 -64 3 -121 11
-162 31 -155 9 4 64 16 122 28 l105 21 -1 32 c-2 25 3 33 20 37 11 2 110 20
218 40 108 20 211 40 227 45 36 10 48 -1 21 -20 -46 -33 9 -39 142 -13 55 11
91 13 97 7 5 -5 25 -79 45 -164 20 -85 41 -171 46 -190 5 -19 15 -60 23 -90
l13 -54 70 -14 c38 -7 130 -14 204 -15 198 -3 269 29 270 118 0 33 -9 51 -46
98 -38 47 -51 57 -76 57 -25 0 -28 3 -19 14 10 11 -1 22 -56 59 -175 116 -528
277 -691 316 -28 7 -52 16 -52 20 0 4 17 13 38 20 53 20 139 76 152 101 19 35
8 62 -35 84 -34 18 -60 21 -175 23 -74 1 -135 2 -136 3 0 0 17 19 38 41 48 51
62 83 47 111 -10 18 -18 20 -82 15 -40 -3 -84 -8 -98 -12 -29 -7 -25 -16 -194
400 -109 268 -103 255 -114 255 -5 0 -2 18 6 40 15 39 18 40 62 40 25 0 76 3
114 7 54 5 67 3 67 -8 0 -25 46 -113 76 -145 41 -44 100 -80 165 -103 l56 -19
46 29 47 29 -51 77 c-27 43 -56 84 -62 92 -19 23 -88 49 -152 57 l-60 7 90 22
c50 13 124 35 165 50 137 49 143 51 148 36 14 -41 140 -131 185 -131 23 0 22
-5 -14 -127 -16 -58 -29 -107 -27 -109 2 -2 22 47 44 108 l41 112 93 2 c88 1
94 3 112 28 11 14 27 26 35 26 9 0 -12 18 -46 40 -34 22 -74 52 -89 65 -15 14
-41 32 -58 40 -37 17 -130 20 -170 5 -51 -20 -34 -4 42 39 56 31 91 44 133 47
222 20 389 129 479 315 23 46 48 113 56 148 l15 63 -42 -6 c-56 -9 -239 -72
-302 -103 -99 -51 -204 -143 -239 -212 -12 -22 -13 -30 -3 -34 8 -3 6 -12 -9
-28 -12 -13 -24 -36 -28 -50 -6 -28 6 -39 45 -39 11 0 17 -4 14 -10 -3 -5 -17
-10 -31 -10 -13 0 -24 -5 -24 -10 0 -14 -76 -61 -170 -105 -75 -35 -75 -35
-45 -7 41 37 75 82 75 97 0 9 -27 13 -95 14 -93 2 -95 1 -95 -21 1 -13 9 -48
20 -78 14 -41 16 -57 7 -62 -36 -24 -362 -107 -373 -95 -2 2 23 22 56 45 71
50 107 107 116 182 l6 55 -98 18 -98 19 -17 -23 c-33 -45 -52 -131 -47 -222
l4 -85 -35 -6 c-69 -11 -111 -7 -111 10 0 9 24 116 54 238 30 121 66 275 81
341 15 66 39 172 54 235 18 72 25 121 19 132 -4 9 -8 41 -8 71 0 100 -6 114
-72 152 -81 48 -94 46 -103 -11z m-625 -814 c0 -11 -4 -20 -10 -20 -5 0 -10 9
-10 20 0 11 5 20 10 20 6 0 10 -9 10 -20z m0 -55 c0 -8 -4 -15 -10 -15 -5 0
-10 7 -10 15 0 8 5 15 10 15 6 0 10 -7 10 -15z m0 -50 c0 -8 -4 -15 -10 -15
-5 0 -10 7 -10 15 0 8 5 15 10 15 6 0 10 -7 10 -15z m0 -50 c0 -8 -4 -15 -10
-15 -5 0 -10 7 -10 15 0 8 5 15 10 15 6 0 10 -7 10 -15z m0 -50 c0 -8 -4 -15
-10 -15 -5 0 -10 7 -10 15 0 8 5 15 10 15 6 0 10 -7 10 -15z m0 -51 c0 -8 -4
-14 -10 -14 -5 0 -10 9 -10 21 0 11 5 17 10 14 6 -3 10 -13 10 -21z m0 -50 c0
-8 -4 -14 -10 -14 -5 0 -10 9 -10 21 0 11 5 17 10 14 6 -3 10 -13 10 -21z m0
-49 c0 -8 -4 -15 -10 -15 -5 0 -10 7 -10 15 0 8 5 15 10 15 6 0 10 -7 10 -15z
m0 -50 c0 -8 -4 -15 -10 -15 -5 0 -10 7 -10 15 0 8 5 15 10 15 6 0 10 -7 10
-15z m0 -51 c0 -8 -4 -12 -10 -9 -5 3 -10 10 -10 16 0 5 5 9 10 9 6 0 10 -7
10 -16z m-540 -25 c0 -11 -27 -12 -34 0 -3 4 -3 11 0 14 8 8 34 -3 34 -14z
m1090 1 c0 -5 -4 -10 -10 -10 -5 0 -10 5 -10 10 0 6 5 10 10 10 6 0 10 -4 10
-10z m-1050 -26 c0 -17 -22 -14 -28 4 -2 7 3 12 12 12 9 0 16 -7 16 -16z m500
1 c0 -8 -4 -15 -10 -15 -5 0 -10 7 -10 15 0 8 5 15 10 15 6 0 10 -7 10 -15z
m510 6 c0 -12 -20 -25 -27 -18 -7 7 6 27 18 27 5 0 9 -4 9 -9z m-965 -20 c7
-12 -12 -24 -25 -16 -11 7 -4 25 10 25 5 0 11 -4 15 -9z m916 -14 c-13 -13
-26 -3 -16 12 3 6 11 8 17 5 6 -4 6 -10 -1 -17z m-871 -13 c0 -17 -22 -14 -28
4 -2 7 3 12 12 12 9 0 16 -7 16 -16z m830 6 c0 -5 -7 -10 -16 -10 -8 0 -12 5
-9 10 3 6 10 10 16 10 5 0 9 -4 9 -10z m-785 -11 c10 -15 -1 -23 -20 -15 -9 3
-13 10 -10 16 8 13 22 13 30 -1z m365 -4 c0 -8 -4 -15 -10 -15 -5 0 -10 7 -10
15 0 8 5 15 10 15 6 0 10 -7 10 -15z m367 -12 c-3 -3 -11 -2 -17 2 -9 6 -9 10
1 16 14 8 27 -7 16 -18z m-677 -3 c0 -5 -9 -10 -20 -10 -11 0 -20 5 -20 10 0
6 9 10 20 10 11 0 20 -4 20 -10z m632 -2 c-9 -9 -15 -9 -24 0 -9 9 -7 12 12
12 19 0 21 -3 12 -12z m-587 -8 c-3 -5 -13 -10 -21 -10 -8 0 -14 5 -14 10 0 6
9 10 21 10 11 0 17 -4 14 -10z m42 -16 c-9 -9 -28 6 -21 18 4 6 10 6 17 -1 6
-6 8 -13 4 -17z m444 3 c-13 -13 -26 -3 -16 12 3 6 11 8 17 5 6 -4 6 -10 -1
-17z m54 13 c-3 -5 -10 -10 -16 -10 -5 0 -9 5 -9 10 0 6 7 10 16 10 8 0 12 -4
9 -10z m-445 -10 c0 -5 -7 -10 -15 -10 -8 0 -15 5 -15 10 0 6 7 10 15 10 8 0
15 -4 15 -10z m50 0 c0 -5 -7 -10 -16 -10 -8 0 -12 5 -9 10 3 6 10 10 16 10 5
0 9 -4 9 -10z m250 2 c0 -13 -12 -22 -22 -16 -10 6 -1 24 13 24 5 0 9 -4 9 -8z
m50 -2 c0 -5 -7 -10 -15 -10 -8 0 -15 5 -15 10 0 6 7 10 15 10 8 0 15 -4 15
-10z m-250 -10 c0 -5 -4 -10 -9 -10 -6 0 -13 5 -16 10 -3 6 1 10 9 10 9 0 16
-4 16 -10z m100 1 c0 -12 -36 -20 -60 -14 -34 9 -22 23 20 23 22 0 40 -4 40
-9z m45 -1 c-3 -5 -10 -10 -16 -10 -5 0 -9 5 -9 10 0 6 7 10 16 10 8 0 12 -4
9 -10z m-75 -55 c0 -8 -4 -15 -10 -15 -5 0 -10 7 -10 15 0 8 5 15 10 15 6 0
10 -7 10 -15z m0 -44 c0 -6 -4 -13 -10 -16 -5 -3 -10 1 -10 9 0 9 5 16 10 16
6 0 10 -4 10 -9z m0 -56 c0 -8 -4 -15 -10 -15 -5 0 -10 7 -10 15 0 8 5 15 10
15 6 0 10 -7 10 -15z m0 -50 c0 -8 -4 -15 -10 -15 -5 0 -10 7 -10 15 0 8 5 15
10 15 6 0 10 -7 10 -15z m0 -50 c0 -8 -4 -15 -10 -15 -5 0 -10 7 -10 15 0 8 5
15 10 15 6 0 10 -7 10 -15z m0 -50 c0 -8 -4 -15 -10 -15 -5 0 -10 7 -10 15 0
8 5 15 10 15 6 0 10 -7 10 -15z m0 -50 c0 -8 -4 -15 -10 -15 -5 0 -10 7 -10
15 0 8 5 15 10 15 6 0 10 -7 10 -15z m0 -50 c0 -8 -4 -15 -10 -15 -5 0 -10 7
-10 15 0 8 5 15 10 15 6 0 10 -7 10 -15z m0 -50 c0 -8 -4 -15 -10 -15 -5 0
-10 7 -10 15 0 8 5 15 10 15 6 0 10 -7 10 -15z m0 -50 c0 -8 -4 -15 -10 -15
-5 0 -10 7 -10 15 0 8 5 15 10 15 6 0 10 -7 10 -15z m0 -50 c0 -8 -4 -15 -10
-15 -5 0 -10 7 -10 15 0 8 5 15 10 15 6 0 10 -7 10 -15z m0 -50 c0 -8 -4 -15
-10 -15 -5 0 -10 7 -10 15 0 8 5 15 10 15 6 0 10 -7 10 -15z m0 -50 c0 -8 -4
-15 -10 -15 -5 0 -10 7 -10 15 0 8 5 15 10 15 6 0 10 -7 10 -15z m0 -50 c0 -8
-4 -15 -10 -15 -5 0 -10 7 -10 15 0 8 5 15 10 15 6 0 10 -7 10 -15z m0 -50 c0
-8 -4 -15 -10 -15 -5 0 -10 7 -10 15 0 8 5 15 10 15 6 0 10 -7 10 -15z m0 -50
c0 -8 -4 -15 -10 -15 -5 0 -10 7 -10 15 0 8 5 15 10 15 6 0 10 -7 10 -15z m0
-50 c0 -8 -4 -15 -10 -15 -5 0 -10 7 -10 15 0 8 5 15 10 15 6 0 10 -7 10 -15z
m0 -50 c0 -8 -4 -15 -10 -15 -5 0 -10 7 -10 15 0 8 5 15 10 15 6 0 10 -7 10
-15z m0 -50 c0 -8 -4 -15 -10 -15 -5 0 -10 7 -10 15 0 8 5 15 10 15 6 0 10 -7
10 -15z m0 -50 c0 -8 -4 -15 -10 -15 -5 0 -10 7 -10 15 0 8 5 15 10 15 6 0 10
-7 10 -15z"/>
<path d="M3990 4423 c0 -10 -2 -43 -5 -73 l-4 -55 13 50 c17 61 19 95 6 95 -5
0 -10 -8 -10 -17z"/>
<path d="M4487 3937 c-45 -53 -115 -161 -119 -182 -3 -19 3 -20 86 -23 l88 -3
-7 28 c-4 15 -9 68 -11 117 -2 49 -5 90 -7 92 -2 2 -15 -11 -30 -29z"/>
<path d="M4123 3839 c-35 -27 -63 -53 -63 -58 0 -8 55 -21 90 -21 11 0 20 18
29 61 7 34 11 62 9 64 -2 2 -31 -19 -65 -46z"/>
<path d="M2028 3373 c7 -3 16 -2 19 1 4 3 -2 6 -13 5 -11 0 -14 -3 -6 -6z"/>
<path d="M2080 3360 c0 -5 5 -10 11 -10 5 0 7 5 4 10 -3 6 -8 10 -11 10 -2 0
-4 -4 -4 -10z"/>
<path d="M4412 3358 c-15 -15 -16 -38 -2 -38 6 0 11 -47 11 -117 l2 -118 11
115 c6 63 15 121 19 128 5 8 4 19 -3 27 -15 18 -22 19 -38 3z"/>
<path d="M2130 3340 c0 -5 5 -10 10 -10 6 0 10 5 10 10 0 6 -4 10 -10 10 -5 0
-10 -4 -10 -10z"/>
<path d="M4940 3330 c0 -5 10 -10 23 -10 18 0 19 2 7 10 -19 13 -30 13 -30 0z"/>
<path d="M2180 3320 c0 -5 5 -10 10 -10 6 0 10 5 10 10 0 6 -4 10 -10 10 -5 0
-10 -4 -10 -10z"/>
<path d="M4825 3177 c-75 -128 -97 -167 -90 -167 7 0 165 238 165 249 0 32
-22 8 -75 -82z"/>
<path d="M2265 3260 c3 -5 11 -10 16 -10 6 0 7 5 4 10 -3 6 -11 10 -16 10 -6
0 -7 -4 -4 -10z"/>
<path d="M5014 3115 c-9 -14 -54 -55 -100 -91 -46 -36 -84 -67 -84 -70 0 -7
11 0 108 69 46 32 90 60 98 61 22 3 37 23 31 40 -9 24 -34 19 -53 -9z"/>
<path d="M2285 3110 c-3 -5 -1 -10 4 -10 6 0 11 5 11 10 0 6 -2 10 -4 10 -3 0
-8 -4 -11 -10z"/>
<path d="M1565 3059 c-22 -5 -82 -35 -133 -66 -105 -64 -136 -71 -298 -72
-111 -1 -119 -5 -105 -58 7 -27 9 -28 92 -33 l84 -5 -2 -50 c-5 -89 -44 -223
-97 -328 l-51 -102 -39 3 c-60 5 -70 -2 -49 -35 89 -140 184 -220 307 -258
102 -31 166 -33 166 -6 0 10 -10 30 -21 45 -12 15 -20 28 -18 30 2 1 27 11 54
21 103 37 197 163 270 361 40 111 40 110 117 90 73 -20 106 -19 121 6 8 12 5
24 -17 52 -31 41 -29 43 22 17 56 -28 123 -44 135 -32 13 13 -12 52 -62 98
-40 37 -37 40 16 18 41 -17 79 -19 88 -5 7 11 -25 70 -37 70 -4 0 -8 6 -8 13
0 6 27 23 60 35 33 13 60 27 60 31 0 5 -24 14 -52 22 -38 10 -54 20 -57 34 -2
11 -11 25 -20 32 -32 25 -148 52 -287 68 -157 17 -181 17 -239 4z"/>
<path d="M2265 3060 c-3 -5 -1 -10 4 -10 6 0 11 5 11 10 0 6 -2 10 -4 10 -3 0
-8 -4 -11 -10z"/>
<path d="M5203 2961 c-17 -17 -67 -39 -243 -105 -98 -38 -53 -31 73 11 62 20
137 39 167 42 48 5 55 9 58 30 3 21 -11 40 -30 41 -4 0 -15 -8 -25 -19z"/>
<path d="M4136 2918 c-55 -78 54 -265 249 -427 74 -62 295 -151 374 -151 44 0
61 14 61 52 0 24 -5 29 -42 38 -271 69 -467 221 -566 443 -33 71 -50 82 -76
45z"/>
<path d="M5174 2730 c-6 -6 -62 -15 -125 -21 -62 -6 -116 -12 -118 -15 -2 -2
45 -1 105 3 75 4 117 2 131 -6 29 -15 55 -4 51 23 -3 23 -28 32 -44 16z"/>
<path d="M769 2017 c-70 -100 -131 -212 -136 -248 -5 -31 1 -43 43 -95 56 -69
76 -86 158 -137 66 -41 169 -77 220 -77 33 0 39 6 109 125 45 77 87 161 87
175 0 5 -18 10 -40 10 -134 0 -336 141 -381 265 -7 19 -15 35 -19 35 -3 0 -21
-24 -41 -53z"/>
<path d="M4176 1674 c8 -42 -4 -54 -52 -54 -27 0 -32 5 -42 38 l-11 37 3 -40
c2 -30 -5 -54 -27 -93 -33 -60 -31 -71 24 -130 16 -17 29 -35 29 -40 0 -5 -26
-30 -58 -55 -112 -87 -182 -206 -182 -306 l0 -48 48 -14 c71 -20 123 -16 184
16 86 45 103 47 196 24 73 -19 88 -20 128 -9 53 15 146 74 188 118 39 42 42
105 6 133 -44 34 -236 127 -279 134 -44 7 -56 25 -17 25 25 0 87 38 94 58 3 9
-3 10 -23 2 -41 -16 -47 -12 -30 20 32 61 -25 27 -65 -40 -16 -27 -19 -5 -5
52 15 64 13 68 -47 112 -26 19 -39 38 -44 62 -3 19 -10 34 -16 34 -5 0 -6 -16
-2 -36z"/>
<path d="M2340 1522 c0 -14 46 -53 53 -45 4 3 -3 17 -15 30 -22 23 -38 30 -38
15z"/>
<path d="M2310 1440 c12 -17 26 -27 32 -24 5 4 0 16 -13 30 -32 34 -44 30 -19
-6z"/>
<path d="M2240 1405 c0 -3 9 -14 21 -26 26 -26 39 -16 14 11 -17 19 -35 26
-35 15z"/>
<path d="M2200 1342 c0 -12 39 -46 45 -41 6 7 -24 49 -36 49 -5 0 -9 -4 -9 -8z"/>
<path d="M2150 1283 c1 -14 27 -43 39 -43 16 0 13 15 -7 33 -20 18 -32 22 -32
10z"/>
<path d="M2100 1222 c0 -14 39 -46 47 -39 3 4 -2 16 -12 27 -19 21 -35 26 -35
12z"/>
<path d="M2056 1162 c-7 -11 31 -48 41 -38 4 3 -2 16 -14 27 -11 12 -23 17
-27 11z"/>
<path d="M2010 1098 c0 -18 27 -44 37 -34 4 4 -3 16 -15 29 -18 17 -22 18 -22
5z"/>
<path d="M1960 1037 c0 -7 9 -18 20 -25 24 -15 27 0 4 22 -19 19 -24 20 -24 3z"/>
<path d="M1917 983 c-7 -6 15 -43 25 -43 5 0 8 5 8 11 0 14 -26 40 -33 32z"/>
<path d="M1866 922 c-3 -5 3 -17 13 -26 11 -10 22 -13 25 -8 3 5 -3 17 -13 26
-11 10 -22 13 -25 8z"/>
<path d="M1820 858 c0 -19 26 -42 34 -30 3 5 -3 17 -14 27 -17 15 -20 16 -20
3z"/>
<path d="M1772 789 c2 -7 10 -15 17 -17 8 -3 12 1 9 9 -2 7 -10 15 -17 17 -8
3 -12 -1 -9 -9z"/>
<path d="M1722 728 c3 -7 13 -15 24 -17 16 -3 17 -1 5 13 -16 19 -34 21 -29 4z"/>
</g>
</svg>
