<?xml version="1.0" standalone="no"?>
<!DOCTYPE svg PUBLIC "-//W3C//DTD SVG 20010904//EN"
 "http://www.w3.org/TR/2001/REC-SVG-20010904/DTD/svg10.dtd">
<svg version="1.0" xmlns="http://www.w3.org/2000/svg"
 width="648.000000pt" height="711.000000pt" viewBox="0 0 648.000000 711.000000"
 preserveAspectRatio="xMidYMid meet">

<g transform="translate(0.000000,711.000000) scale(0.100000,-0.100000)"
fill="#000000" stroke="none">
<path d="M3468 7096 c-39 -21 -74 -65 -87 -107 -14 -45 -23 -53 -86 -68 -65
-16 -154 -56 -184 -84 -68 -63 -101 -159 -101 -296 -1 -84 -4 -101 -25 -136
-32 -52 -31 -65 5 -106 16 -19 30 -39 30 -46 0 -7 10 -38 21 -69 l21 -56 47 5
c49 6 165 31 193 42 22 9 48 -40 48 -89 0 -82 -44 -122 -103 -94 -45 22 -73 9
-82 -38 -17 -94 -44 -142 -106 -190 -62 -47 -75 -67 -109 -156 -13 -35 -37
-71 -70 -103 -39 -39 -48 -53 -44 -72 9 -34 -13 -60 -128 -160 -57 -48 -105
-91 -108 -95 -11 -14 -95 -68 -106 -68 -21 0 -128 60 -172 96 -55 46 -272 284
-272 300 0 6 -18 43 -41 82 -34 58 -39 74 -30 90 18 34 13 50 -30 97 -33 35
-48 45 -80 47 l-39 3 33 50 c95 141 37 121 -94 -32 -31 -37 -42 -43 -90 -49
-42 -6 -61 -14 -86 -40 -48 -47 -46 -104 7 -235 42 -103 53 -186 28 -207 -7
-5 -33 -16 -58 -23 -74 -20 -300 -129 -367 -175 -127 -89 -183 -136 -189 -160
-4 -17 11 -61 56 -156 35 -73 65 -135 68 -138 2 -3 11 5 19 18 29 42 98 23
130 -37 11 -20 33 -74 48 -120 26 -80 33 -90 107 -162 l79 -78 -3 -67 -3 -68
-60 -12 c-90 -17 -152 -43 -225 -93 -37 -25 -200 -191 -200 -203 0 -3 -6 -13
-13 -20 -35 -38 -73 -93 -203 -293 -29 -45 -148 -249 -212 -365 -35 -64 -143
-241 -158 -259 -7 -9 -39 -50 -71 -91 -64 -81 -139 -156 -243 -241 -36 -30
-76 -64 -90 -76 -14 -13 -28 -23 -32 -23 -5 0 -8 -26 -8 -58 l0 -58 55 -19
c48 -16 62 -17 106 -7 28 7 62 12 76 12 25 0 25 -1 19 -52 -19 -142 -20 -133
11 -168 20 -23 44 -35 84 -45 80 -18 101 -11 156 53 l48 56 7 -77 c9 -99 30
-131 100 -152 29 -8 66 -15 84 -15 18 0 65 -16 105 -35 67 -32 81 -35 162 -35
74 0 93 -3 114 -20 30 -23 131 -56 202 -66 42 -5 53 -3 73 16 52 49 86 69 148
85 36 9 83 27 105 39 65 38 156 67 184 61 14 -3 53 -31 86 -61 79 -72 111 -89
141 -75 23 10 33 34 51 126 13 60 42 66 146 30 62 -21 87 -26 101 -18 16 9 12
14 -33 47 -28 21 -51 45 -51 55 0 62 107 51 159 -16 19 -23 21 -35 15 -83 -14
-128 46 -43 64 90 25 172 35 585 23 920 -18 497 -50 685 -149 878 -37 72 -141
184 -210 225 -31 19 -101 49 -155 67 -111 36 -121 47 -115 125 3 41 13 65 43
106 l38 53 -2 141 c-2 118 1 144 14 155 13 11 19 9 41 -11 45 -43 65 -10 109
182 10 44 15 88 11 104 -9 37 -198 219 -261 252 -36 19 -71 27 -123 31 -81 5
-76 -1 -86 104 -4 38 -19 81 -46 133 -45 87 -52 141 -21 169 26 24 58 13 124
-43 85 -71 152 -153 253 -307 50 -77 107 -156 127 -175 19 -19 63 -70 97 -114
122 -155 216 -245 254 -245 12 0 41 16 66 35 25 19 101 76 170 126 69 51 161
121 205 157 l81 65 -12 90 c-15 104 -6 169 25 200 11 12 23 18 27 14 4 -4 -3
-55 -15 -114 -25 -127 -26 -153 -7 -178 8 -11 12 -25 9 -32 -3 -7 10 -30 27
-50 69 -78 108 -218 97 -346 -7 -77 -23 -99 -88 -120 -225 -70 -369 -329 -369
-660 0 -135 81 -812 135 -1132 66 -388 104 -569 120 -582 31 -22 146 -47 164
-36 15 10 21 -3 51 -121 50 -195 74 -272 120 -386 58 -146 108 -378 83 -393
-5 -3 -44 3 -88 14 -111 26 -191 31 -232 14 -18 -8 -75 -54 -126 -104 -51 -49
-104 -99 -117 -111 -26 -22 -111 -104 -456 -440 -110 -107 -240 -232 -287
-276 -68 -64 -87 -88 -87 -109 l0 -27 43 37 c73 66 223 210 502 484 149 147
330 321 402 389 155 144 149 142 328 101 125 -28 125 -28 136 -56 5 -13 20
-139 34 -278 37 -389 62 -563 102 -713 19 -75 43 -172 52 -214 l16 -78 40 0
c38 0 41 2 58 44 62 151 61 302 -3 472 -32 83 -72 252 -85 359 -20 158 -11
408 14 401 78 -22 441 -88 966 -176 647 -108 1054 -179 1125 -195 36 -8 135
-31 220 -50 216 -49 377 -71 437 -59 25 5 48 14 50 19 2 6 -42 18 -104 28 -60
9 -196 32 -303 51 -107 19 -352 62 -545 95 -192 34 -438 77 -545 96 -412 73
-651 114 -810 140 -244 38 -377 63 -450 83 l-65 17 -6 250 c-7 269 -19 372
-69 559 -38 145 -45 239 -31 427 19 242 41 379 116 734 77 362 116 647 117
840 0 194 -12 255 -68 328 -39 52 -44 65 -44 110 0 60 47 181 109 286 56 95
145 275 171 349 13 35 29 66 36 69 13 5 54 -30 54 -47 0 -5 12 -21 27 -35 22
-19 35 -24 58 -19 39 7 115 -19 185 -64 76 -49 205 -112 228 -112 11 0 25 7
32 14 12 15 84 184 121 286 11 30 29 71 38 90 10 19 33 76 51 125 19 51 56
123 86 168 29 42 55 92 59 110 22 114 38 167 52 167 10 0 13 -5 8 -17 -29 -70
-13 -131 60 -234 18 -26 41 -61 50 -79 16 -31 16 -34 -2 -57 -10 -15 -45 -35
-80 -48 -62 -22 -119 -59 -157 -99 -33 -36 -96 -139 -102 -166 -12 -52 -38
-129 -86 -254 -61 -154 -61 -184 -1 -249 21 -23 53 -63 72 -88 55 -77 102 -84
136 -19 8 16 22 33 31 38 9 5 19 24 23 43 10 50 34 43 48 -13 14 -58 36 -90
106 -154 49 -44 97 -107 97 -126 0 -4 -12 -3 -27 3 -63 24 -159 -14 -301 -118
-272 -200 -367 -373 -712 -1290 -56 -147 -115 -302 -132 -343 -67 -165 -156
-320 -205 -357 -18 -14 -33 -31 -33 -37 0 -7 14 -25 31 -42 l31 -29 211 3
c163 3 217 7 234 18 12 8 31 14 42 14 11 0 25 8 31 17 9 14 12 15 17 4 3 -7
21 -30 39 -49 19 -20 34 -44 34 -53 0 -29 -20 -73 -46 -100 l-25 -26 42 -54
c58 -76 138 -156 178 -182 19 -11 55 -24 80 -28 26 -4 66 -15 91 -24 34 -13
60 -15 108 -10 74 8 113 35 144 102 46 99 77 97 348 -17 133 -56 269 -85 292
-62 7 7 12 46 12 96 1 97 11 116 47 93 31 -20 183 -67 215 -67 27 0 31 19 12
50 -7 10 -9 22 -6 25 4 4 43 10 87 14 117 10 122 17 107 162 -6 51 -5 79 3 83
16 10 73 -18 108 -53 42 -41 80 -48 158 -26 80 21 92 33 71 74 -9 16 -16 36
-16 44 0 15 29 27 69 27 l24 0 -7 293 c-16 680 -61 1059 -164 1384 -23 72 -43
118 -51 118 -7 0 -23 27 -35 60 -54 149 -149 263 -275 329 -99 52 -181 59
-280 25 -65 -21 -70 -22 -94 -6 -58 38 -100 182 -101 342 0 84 4 112 27 177
30 86 29 107 -9 174 -25 42 -31 79 -15 88 12 8 47 -67 61 -129 6 -27 13 -58
16 -67 9 -29 75 -60 140 -66 l61 -5 8 115 c4 72 3 129 -4 154 -17 64 -122 155
-256 221 -99 50 -141 60 -282 69 -102 6 -113 8 -113 26 0 24 -23 70 -65 129
-46 65 -95 160 -95 185 0 37 56 47 84 15 14 -15 16 -29 11 -64 -9 -57 5 -66
39 -26 36 43 33 73 -11 115 -51 47 -100 72 -162 80 -33 4 -51 11 -51 20 0 8
30 28 66 46 37 18 66 38 66 43 0 6 -14 14 -31 19 -49 14 -104 -8 -159 -63 -71
-73 -88 -116 -107 -264 -8 -70 -23 -146 -32 -170 -50 -128 -168 -302 -249
-370 -31 -26 -35 -27 -61 -14 -15 8 -40 17 -54 21 -32 7 -42 28 -29 61 13 34
4 51 -44 85 -23 15 -61 52 -83 82 -48 62 -166 258 -225 374 l-41 82 -64 5
c-95 7 -129 37 -173 155 -18 46 -19 61 -9 130 6 42 23 106 39 142 20 47 30 87
34 145 3 44 13 100 22 125 12 31 18 76 18 145 1 108 -12 148 -69 207 -54 58
-154 83 -207 54z m252 -1217 c0 -23 -41 -66 -87 -91 -58 -32 -162 -52 -221
-43 -76 11 -167 115 -115 132 6 2 28 -14 50 -36 75 -78 123 -79 258 -7 109 59
115 61 115 45z m-333 -311 c28 -31 46 -11 41 48 -4 48 -3 52 13 43 59 -31 46
-129 -17 -129 -36 0 -54 10 -69 41 -18 34 -19 63 -2 92 11 20 12 18 15 -28 2
-27 10 -57 19 -67z m-323 26 c3 -9 5 -28 5 -42 -1 -23 -3 -21 -8 8 -9 54 -37
52 -62 -4 -11 -25 -22 -46 -24 -46 -5 0 11 46 27 78 13 26 53 30 62 6z m2156
-73 c0 -10 -236 -71 -276 -71 -40 0 -25 22 36 52 48 24 67 27 148 28 50 0 92
-4 92 -9z m-1805 -57 c8 -4 23 -20 31 -36 12 -24 13 -33 2 -56 -10 -21 -21
-28 -52 -30 -46 -4 -76 19 -76 57 0 55 44 84 95 65z m1867 -20 c16 -9 25 -20
22 -28 -6 -15 -186 -83 -246 -92 -34 -6 -37 -4 -63 40 -15 26 -26 48 -24 50 5
4 168 44 199 49 33 6 79 -2 112 -19z m-1853 -195 c15 -25 17 -37 9 -61 -21
-60 -75 -71 -131 -27 -30 23 -37 71 -13 95 22 21 26 17 26 -26 0 -34 4 -41 24
-46 34 -8 57 -2 70 18 8 13 6 22 -12 41 -26 27 -28 37 -7 37 8 0 24 -14 34
-31z m-1599 1 c0 -8 -74 -20 -129 -20 -30 0 -113 -15 -180 -32 -7 -1 -16 3
-18 10 -3 7 11 19 34 28 60 25 293 37 293 14z m1240 -81 c0 -6 -4 -7 -10 -4
-5 3 -10 11 -10 16 0 6 5 7 10 4 6 -3 10 -11 10 -16z m-1275 -12 c-8 -13 -27
-29 -41 -35 -50 -23 -201 -6 -205 23 -4 23 49 35 154 35 l107 0 -15 -23z
m1645 -103 c79 -17 208 -70 197 -80 -7 -7 -238 61 -279 82 -31 16 -37 28 -10
20 9 -3 51 -13 92 -22z m-30 -420 c141 -46 132 -62 -10 -19 -46 14 -101 25
-122 25 -21 0 -38 4 -38 9 0 26 59 21 170 -15z m-1940 -74 c47 -129 114 -207
167 -194 19 5 23 2 23 -16 0 -18 -4 -20 -22 -14 -108 33 -228 168 -228 257 0
18 6 39 12 45 14 14 13 16 48 -78z m388 14 c5 -41 -12 -90 -58 -164 -44 -71
-49 -63 -25 38 20 82 55 164 69 159 6 -2 13 -17 14 -33z m3592 26 c0 -5 -7
-10 -15 -10 -24 0 -65 -23 -65 -36 0 -22 46 -27 95 -11 56 20 59 6 4 -18 -22
-10 -46 -26 -52 -34 -9 -12 -34 -16 -105 -18 -95 -2 -117 10 -39 22 54 8 86
30 69 47 -20 20 -13 46 16 56 36 14 92 15 92 2z m-3766 -75 c14 -14 42 -122
34 -130 -2 -2 -20 30 -40 70 -24 50 -31 75 -23 75 8 0 20 -7 29 -15z m265 -22
c-1 -18 -67 -98 -82 -101 -14 -3 -15 1 -6 27 13 37 53 81 74 81 8 0 15 -3 14
-7z m4002 -39 c125 -66 193 -166 267 -394 56 -172 67 -316 32 -420 -10 -30
-18 -48 -19 -40 -35 450 -48 508 -147 672 -42 69 -142 171 -193 198 -20 11
-30 19 -22 20 7 0 44 -16 82 -36z m-4301 1 c18 -47 22 -75 12 -75 -14 0 -45
69 -38 86 8 20 15 17 26 -11z m4164 -5 c58 -28 154 -129 230 -243 90 -136 106
-183 117 -347 5 -74 11 -153 15 -175 3 -22 4 -37 0 -34 -3 3 -22 84 -42 180
-42 204 -73 303 -119 380 -39 63 -112 149 -127 149 -11 0 -6 -37 8 -75 5 -11
-20 10 -54 46 -34 36 -80 79 -103 94 -35 25 -38 30 -22 36 31 13 55 10 97 -11z
m-624 -65 c0 -3 -31 -37 -70 -76 -38 -38 -70 -66 -70 -61 0 13 55 95 76 113
26 22 64 36 64 24z m352 -12 c74 -85 85 -305 29 -573 -18 -84 -115 -397 -127
-409 -10 -11 11 107 51 274 71 299 78 414 36 635 -10 49 -15 90 -11 90 4 0 14
-8 22 -17z m247 -65 c89 -119 132 -253 146 -458 10 -146 -26 -723 -56 -895
-13 -75 -50 -217 -55 -212 -3 2 0 35 5 73 21 143 42 447 48 684 10 423 -23
636 -135 853 -2 4 -1 7 2 7 3 0 23 -24 45 -52z m-377 15 c62 -66 84 -166 69
-305 -6 -50 -12 -92 -14 -95 -3 -2 -8 26 -12 62 -4 36 -24 122 -46 191 -52
169 -52 205 3 147z m-2182 -438 c45 -59 79 -110 76 -113 -26 -25 -217 268
-270 415 -20 52 -20 15 0 -60 27 -103 104 -241 188 -336 65 -73 57 -76 -15 -6
-73 72 -169 212 -198 288 -28 76 -45 180 -36 225 7 37 8 35 90 -134 62 -128
104 -198 165 -279z m-60 274 c36 -46 80 -99 98 -116 23 -23 28 -33 17 -33 -25
0 -100 76 -146 148 -23 37 -50 79 -60 94 -11 15 -19 31 -19 35 1 10 29 -22
110 -128z m2150 -105 c-25 -125 -80 -238 -193 -404 -133 -194 -369 -548 -410
-615 -21 -34 -61 -115 -90 -180 -59 -135 -97 -208 -126 -245 -62 -79 -3 76
133 350 90 179 158 294 343 580 219 338 212 326 329 630 l29 75 3 -46 c2 -25
-6 -91 -18 -145z m-3460 117 c0 -14 -98 -33 -145 -29 -36 3 -33 5 40 20 98 20
105 20 105 9z m134 -28 c32 -15 52 -31 49 -39 -2 -6 8 -20 22 -31 139 -95 212
-225 250 -443 34 -195 18 -397 -95 -1169 -27 -190 -48 -346 -46 -349 8 -7 24
33 30 78 10 63 37 150 47 150 10 0 10 -213 0 -250 -6 -23 -13 -25 -77 -30 -80
-6 -94 -13 -119 -70 -15 -34 -23 -40 -48 -40 -17 0 -50 12 -75 26 -71 42 -93
45 -168 22 -36 -11 -85 -33 -107 -49 -22 -16 -42 -27 -44 -25 -2 2 20 36 50
75 30 40 89 135 131 211 80 147 126 219 150 239 31 26 27 -40 -13 -196 -36
-140 -32 -233 10 -233 42 0 93 121 163 390 117 450 157 704 158 1005 0 239
-36 392 -124 522 -34 51 -132 153 -146 153 -20 0 -18 -35 4 -97 29 -79 46
-200 46 -328 0 -167 -17 -171 -30 -6 -15 169 -31 250 -71 351 -33 82 -41 160
-16 160 8 0 39 -12 69 -27z m3006 -25 c0 -31 -44 -108 -61 -108 -23 0 -2 89
28 122 24 26 33 22 33 -14z m-3172 -41 c44 -46 67 -148 42 -187 -12 -19 -14
-15 -29 59 -7 36 -21 82 -32 103 -10 20 -19 40 -19 43 0 12 18 4 38 -18z
m-228 -1 c0 -3 -51 -44 -112 -92 -189 -146 -250 -212 -282 -308 -30 -87 -10
-75 119 74 184 214 253 265 319 240 l27 -10 -44 -53 c-86 -101 -194 -288 -287
-497 -28 -63 -55 -124 -60 -135 -5 -11 -15 -36 -24 -55 -8 -19 -24 -57 -36
-85 -40 -93 -107 -279 -170 -473 -57 -177 -141 -401 -168 -448 -23 -39 -13 43
13 103 13 32 34 112 45 177 18 99 30 136 71 218 60 119 108 240 184 458 75
214 97 259 272 556 46 78 83 144 83 148 0 3 -8 6 -18 6 -28 0 -123 -90 -233
-221 -55 -65 -109 -123 -119 -129 -19 -10 -20 -7 -20 43 0 81 34 138 178 293
128 138 196 194 239 194 13 0 23 -2 23 -4z m4169 -298 c1 -183 -15 -338 -54
-510 -26 -115 -94 -342 -101 -335 -6 5 19 119 61 286 40 158 65 403 65 639 0
81 4 165 8 187 7 38 7 37 13 -30 4 -38 7 -145 8 -237z m-4015 200 c14 -126
-24 -360 -87 -543 -63 -184 -223 -532 -328 -718 -66 -116 -160 -259 -167 -253
-5 5 26 63 135 251 90 155 279 583 332 750 48 153 78 314 87 466 4 60 10 109
14 109 4 0 11 -28 14 -62z m1889 28 c14 0 17 -10 17 -58 0 -32 -4 -58 -10 -58
-5 0 -10 4 -10 10 0 18 -92 79 -130 85 -22 4 -40 10 -40 14 0 19 20 22 85 15
39 -4 78 -7 88 -8z m-8 -272 c-3 -30 -10 -54 -13 -54 -17 0 -52 33 -52 48 0
20 63 84 69 70 2 -5 0 -34 -4 -64z m2678 -244 c5 -62 3 -78 -4 -60 -13 31 -23
193 -11 165 5 -11 12 -58 15 -105z m-3343 -190 c29 -91 63 -192 76 -224 13
-33 22 -62 19 -64 -6 -6 -47 86 -86 193 -25 68 -90 306 -88 324 1 12 28 -67
79 -229z m3229 43 c1 -56 -3 -93 -9 -93 -6 0 -10 53 -9 143 1 107 4 130 9 92
5 -27 9 -92 9 -142z m-2611 40 c-3 -38 -21 -124 -41 -193 -74 -264 -103 -447
-114 -713 -7 -188 -8 -191 -81 -185 -36 3 -37 4 -40 46 -2 26 9 85 27 150 16
59 37 163 46 232 9 69 32 186 52 260 19 74 48 183 63 241 25 92 78 228 89 229
2 0 1 -30 -1 -67z m2822 -563 c6 -206 13 -394 17 -417 4 -38 3 -44 -18 -52
-37 -14 -72 -68 -67 -102 5 -29 4 -29 -48 -29 -66 0 -72 13 -50 113 20 94 36
265 36 396 0 93 16 238 26 229 2 -2 -2 -60 -8 -129 -8 -95 -7 -143 2 -197 6
-40 15 -72 20 -72 12 0 20 67 20 175 0 55 7 138 15 185 9 47 18 175 22 285 l7
200 8 -105 c4 -58 12 -274 18 -480z m-3998 168 c-9 -9 -12 1 -11 43 l1 54 11
-43 c7 -31 7 -46 -1 -54z m31 -228 c1 -47 1 -205 0 -353 l-3 -267 -27 6 c-16
4 -44 12 -63 18 -42 14 -42 17 -6 166 31 128 55 308 62 455 3 61 8 117 11 125
10 26 25 -60 26 -150z"/>
<path d="M3351 5436 c-17 -21 13 -46 55 -46 39 0 43 11 12 40 -25 23 -51 26
-67 6z"/>
</g>
</svg>
